<mxfile host="app.diagrams.net" modified="2023-07-02T07:14:46.072Z" agent="Mozilla/5.0 (Windows NT 10.0; Win64; x64) AppleWebKit/537.36 (KHTML, like Gecko) Chrome/114.0.0.0 Safari/537.36" etag="J3QXG1aLqDb1Zjeawt0X" version="21.5.1" type="github">
  <diagram name="‫עמוד-1‬" id="JzSRAs22pmhVZDehv8tZ">
    <mxGraphModel dx="1194" dy="734" grid="1" gridSize="10" guides="1" tooltips="1" connect="1" arrows="1" fold="1" page="1" pageScale="1" pageWidth="827" pageHeight="1169" math="0" shadow="0">
      <root>
        <mxCell id="0" />
        <mxCell id="1" parent="0" />
        <mxCell id="M5U0eJ4ziMv3Q8MqEhpf-15" value="" style="rounded=1;whiteSpace=wrap;html=1;fillColor=#f8cecc;strokeColor=#b85450;" parent="1" vertex="1">
          <mxGeometry x="350" y="350" width="290" height="120" as="geometry" />
        </mxCell>
        <mxCell id="M5U0eJ4ziMv3Q8MqEhpf-1" value="" style="endArrow=none;dashed=1;html=1;rounded=0;" parent="1" edge="1">
          <mxGeometry width="50" height="50" relative="1" as="geometry">
            <mxPoint y="520" as="sourcePoint" />
            <mxPoint x="820" y="520" as="targetPoint" />
          </mxGeometry>
        </mxCell>
        <mxCell id="M5U0eJ4ziMv3Q8MqEhpf-5" style="edgeStyle=orthogonalEdgeStyle;rounded=0;orthogonalLoop=1;jettySize=auto;html=1;entryX=0;entryY=1;entryDx=0;entryDy=-15;entryPerimeter=0;" parent="1" source="M5U0eJ4ziMv3Q8MqEhpf-2" target="M5U0eJ4ziMv3Q8MqEhpf-4" edge="1">
          <mxGeometry relative="1" as="geometry" />
        </mxCell>
        <mxCell id="M5U0eJ4ziMv3Q8MqEhpf-9" style="edgeStyle=orthogonalEdgeStyle;rounded=0;orthogonalLoop=1;jettySize=auto;html=1;entryX=0.017;entryY=0.288;entryDx=0;entryDy=0;entryPerimeter=0;" parent="1" source="M5U0eJ4ziMv3Q8MqEhpf-2" target="M5U0eJ4ziMv3Q8MqEhpf-8" edge="1">
          <mxGeometry relative="1" as="geometry" />
        </mxCell>
        <mxCell id="M5U0eJ4ziMv3Q8MqEhpf-2" value="Clicks - EMR" style="ellipse;shape=cloud;whiteSpace=wrap;html=1;fillColor=#dae8fc;strokeColor=#6c8ebf;" parent="1" vertex="1">
          <mxGeometry x="450" y="660" width="120" height="80" as="geometry" />
        </mxCell>
        <mxCell id="M5U0eJ4ziMv3Q8MqEhpf-3" value="קמיליון- מערכת תפעולית בבתי החולים" style="ellipse;shape=cloud;whiteSpace=wrap;html=1;fillColor=#dae8fc;strokeColor=#6c8ebf;" parent="1" vertex="1">
          <mxGeometry x="130" y="620" width="230" height="120" as="geometry" />
        </mxCell>
        <mxCell id="M5U0eJ4ziMv3Q8MqEhpf-4" value="RDB" style="shape=cylinder3;whiteSpace=wrap;html=1;boundedLbl=1;backgroundOutline=1;size=15;fillColor=#dae8fc;strokeColor=#6c8ebf;" parent="1" vertex="1">
          <mxGeometry x="670" y="650" width="60" height="80" as="geometry" />
        </mxCell>
        <mxCell id="M5U0eJ4ziMv3Q8MqEhpf-8" value="FS" style="shape=card;whiteSpace=wrap;html=1;fillColor=#dae8fc;strokeColor=#6c8ebf;" parent="1" vertex="1">
          <mxGeometry x="670" y="550" width="60" height="80" as="geometry" />
        </mxCell>
        <mxCell id="M5U0eJ4ziMv3Q8MqEhpf-10" value="" style="shape=flexArrow;endArrow=classic;html=1;rounded=0;exitX=0.467;exitY=0.05;exitDx=0;exitDy=0;exitPerimeter=0;" parent="1" source="M5U0eJ4ziMv3Q8MqEhpf-2" edge="1">
          <mxGeometry width="50" height="50" relative="1" as="geometry">
            <mxPoint x="390" y="400" as="sourcePoint" />
            <mxPoint x="506" y="470" as="targetPoint" />
          </mxGeometry>
        </mxCell>
        <mxCell id="M5U0eJ4ziMv3Q8MqEhpf-11" value="PDF&lt;br&gt;אבחנות" style="shape=card;whiteSpace=wrap;html=1;" parent="1" vertex="1">
          <mxGeometry x="475" y="380" width="60" height="80" as="geometry" />
        </mxCell>
        <mxCell id="M5U0eJ4ziMv3Q8MqEhpf-12" value="FS" style="shape=card;whiteSpace=wrap;html=1;fillColor=#dae8fc;strokeColor=#6c8ebf;" parent="1" vertex="1">
          <mxGeometry x="678" y="557" width="60" height="80" as="geometry" />
        </mxCell>
        <mxCell id="M5U0eJ4ziMv3Q8MqEhpf-13" value="PDF&lt;br&gt;סיכומי ביקור" style="shape=card;whiteSpace=wrap;html=1;" parent="1" vertex="1">
          <mxGeometry x="550" y="378" width="60" height="80" as="geometry" />
        </mxCell>
        <mxCell id="M5U0eJ4ziMv3Q8MqEhpf-14" value="dicom&lt;br&gt;תוצאות דימות" style="shape=card;whiteSpace=wrap;html=1;" parent="1" vertex="1">
          <mxGeometry x="390" y="380" width="60" height="80" as="geometry" />
        </mxCell>
        <mxCell id="M5U0eJ4ziMv3Q8MqEhpf-16" value="" style="shape=flexArrow;endArrow=classic;html=1;rounded=0;exitX=0.479;exitY=0.008;exitDx=0;exitDy=0;exitPerimeter=0;" parent="1" source="M5U0eJ4ziMv3Q8MqEhpf-15" edge="1">
          <mxGeometry width="50" height="50" relative="1" as="geometry">
            <mxPoint x="390" y="300" as="sourcePoint" />
            <mxPoint x="489" y="280" as="targetPoint" />
          </mxGeometry>
        </mxCell>
        <mxCell id="M5U0eJ4ziMv3Q8MqEhpf-19" style="edgeStyle=orthogonalEdgeStyle;rounded=0;orthogonalLoop=1;jettySize=auto;html=1;entryX=0.5;entryY=1;entryDx=0;entryDy=0;entryPerimeter=0;" parent="1" source="M5U0eJ4ziMv3Q8MqEhpf-17" target="M5U0eJ4ziMv3Q8MqEhpf-18" edge="1">
          <mxGeometry relative="1" as="geometry" />
        </mxCell>
        <mxCell id="M5U0eJ4ziMv3Q8MqEhpf-21" style="edgeStyle=orthogonalEdgeStyle;rounded=0;orthogonalLoop=1;jettySize=auto;html=1;" parent="1" source="M5U0eJ4ziMv3Q8MqEhpf-17" target="M5U0eJ4ziMv3Q8MqEhpf-20" edge="1">
          <mxGeometry relative="1" as="geometry" />
        </mxCell>
        <mxCell id="M5U0eJ4ziMv3Q8MqEhpf-17" value="Python&lt;br&gt;Anaconda" style="ellipse;shape=cloud;whiteSpace=wrap;html=1;" parent="1" vertex="1">
          <mxGeometry x="430" y="200" width="120" height="80" as="geometry" />
        </mxCell>
        <mxCell id="M5U0eJ4ziMv3Q8MqEhpf-18" value="ECE" style="shape=cylinder3;whiteSpace=wrap;html=1;boundedLbl=1;backgroundOutline=1;size=15;fillColor=#fff2cc;strokeColor=#d6b656;" parent="1" vertex="1">
          <mxGeometry x="450" y="20" width="100" height="100" as="geometry" />
        </mxCell>
        <mxCell id="M5U0eJ4ziMv3Q8MqEhpf-27" style="edgeStyle=orthogonalEdgeStyle;rounded=0;orthogonalLoop=1;jettySize=auto;html=1;" parent="1" source="M5U0eJ4ziMv3Q8MqEhpf-20" target="M5U0eJ4ziMv3Q8MqEhpf-23" edge="1">
          <mxGeometry relative="1" as="geometry" />
        </mxCell>
        <mxCell id="M5U0eJ4ziMv3Q8MqEhpf-20" value="התממה&lt;br&gt;hebSafeharbor" style="rhombus;whiteSpace=wrap;html=1;fillColor=#ffe6cc;strokeColor=#d79b00;" parent="1" vertex="1">
          <mxGeometry x="60" y="270" width="140" height="140" as="geometry" />
        </mxCell>
        <mxCell id="M5U0eJ4ziMv3Q8MqEhpf-28" style="edgeStyle=orthogonalEdgeStyle;rounded=0;orthogonalLoop=1;jettySize=auto;html=1;" parent="1" source="M5U0eJ4ziMv3Q8MqEhpf-23" target="M5U0eJ4ziMv3Q8MqEhpf-18" edge="1">
          <mxGeometry relative="1" as="geometry" />
        </mxCell>
        <mxCell id="M5U0eJ4ziMv3Q8MqEhpf-31" value="&lt;font style=&quot;font-size: 21px;&quot;&gt;File beat&lt;/font&gt;" style="edgeLabel;html=1;align=center;verticalAlign=middle;resizable=0;points=[];labelBackgroundColor=#97D077;" parent="M5U0eJ4ziMv3Q8MqEhpf-28" vertex="1" connectable="0">
          <mxGeometry x="-0.47" relative="1" as="geometry">
            <mxPoint as="offset" />
          </mxGeometry>
        </mxCell>
        <mxCell id="M5U0eJ4ziMv3Q8MqEhpf-23" value="" style="rounded=1;whiteSpace=wrap;html=1;fillColor=#fff2cc;strokeColor=#d6b656;" parent="1" vertex="1">
          <mxGeometry x="30" y="90" width="290" height="120" as="geometry" />
        </mxCell>
        <mxCell id="M5U0eJ4ziMv3Q8MqEhpf-25" value="txt files" style="shape=card;whiteSpace=wrap;html=1;" parent="1" vertex="1">
          <mxGeometry x="60" y="110" width="60" height="80" as="geometry" />
        </mxCell>
        <mxCell id="M5U0eJ4ziMv3Q8MqEhpf-29" value="&lt;h1&gt;Source Folder&lt;/h1&gt;" style="text;html=1;strokeColor=none;fillColor=none;spacing=5;spacingTop=-20;whiteSpace=wrap;overflow=hidden;rounded=0;" parent="1" vertex="1">
          <mxGeometry x="410.5" y="320" width="199" height="40" as="geometry" />
        </mxCell>
        <mxCell id="M5U0eJ4ziMv3Q8MqEhpf-30" value="&lt;h1&gt;Destenation Folder&lt;/h1&gt;" style="text;html=1;strokeColor=none;fillColor=none;spacing=5;spacingTop=-20;whiteSpace=wrap;overflow=hidden;rounded=0;" parent="1" vertex="1">
          <mxGeometry x="50" y="60" width="230" height="40" as="geometry" />
        </mxCell>
        <mxCell id="bLS1nS9NP0-RoPgg7gnI-1" value="txt files" style="shape=card;whiteSpace=wrap;html=1;" vertex="1" parent="1">
          <mxGeometry x="67" y="115" width="60" height="80" as="geometry" />
        </mxCell>
        <mxCell id="bLS1nS9NP0-RoPgg7gnI-2" value="dicom&lt;br style=&quot;border-color: var(--border-color);&quot;&gt;תוצאות דימות" style="shape=card;whiteSpace=wrap;html=1;" vertex="1" parent="1">
          <mxGeometry x="75" y="121" width="60" height="80" as="geometry" />
        </mxCell>
        <mxCell id="bLS1nS9NP0-RoPgg7gnI-6" value="txt files" style="shape=card;whiteSpace=wrap;html=1;" vertex="1" parent="1">
          <mxGeometry x="145" y="109" width="60" height="80" as="geometry" />
        </mxCell>
        <mxCell id="bLS1nS9NP0-RoPgg7gnI-7" value="txt files" style="shape=card;whiteSpace=wrap;html=1;" vertex="1" parent="1">
          <mxGeometry x="152" y="114" width="60" height="80" as="geometry" />
        </mxCell>
        <mxCell id="bLS1nS9NP0-RoPgg7gnI-8" value="אבחנות" style="shape=card;whiteSpace=wrap;html=1;" vertex="1" parent="1">
          <mxGeometry x="160" y="120" width="60" height="80" as="geometry" />
        </mxCell>
        <mxCell id="bLS1nS9NP0-RoPgg7gnI-9" value="txt files" style="shape=card;whiteSpace=wrap;html=1;" vertex="1" parent="1">
          <mxGeometry x="228" y="108" width="60" height="80" as="geometry" />
        </mxCell>
        <mxCell id="bLS1nS9NP0-RoPgg7gnI-10" value="txt files" style="shape=card;whiteSpace=wrap;html=1;" vertex="1" parent="1">
          <mxGeometry x="235" y="113" width="60" height="80" as="geometry" />
        </mxCell>
        <mxCell id="bLS1nS9NP0-RoPgg7gnI-11" value="סיכומי ביקור" style="shape=card;whiteSpace=wrap;html=1;" vertex="1" parent="1">
          <mxGeometry x="243" y="119" width="60" height="80" as="geometry" />
        </mxCell>
      </root>
    </mxGraphModel>
  </diagram>
</mxfile>
